<?xml version="1.0" standalone="no"?>
<!DOCTYPE svg PUBLIC "-//W3C//DTD SVG 1.1//EN" "http://www.w3.org/Graphics/SVG/1.1/DTD/svg11.dtd" >
<svg>
<metadata>
Created by FontForge 20120731 at Tue Jun 20 10:30:57 2017
 By www
(c) Copyright 1995-1997 International Typeface Corporation  All rights reserved.
</metadata>
<defs>
<font id="BlairITC-Medium" horiz-adv-x="500" >
  <font-face 
    font-family="Blair ITC"
    font-weight="500"
    font-stretch="normal"
    units-per-em="1000"
    panose-1="0 0 0 0 0 0 0 0 0 0"
    ascent="800"
    descent="-200"
    x-height="615"
    cap-height="724"
    bbox="-245 -236 1538 964"
    underline-thickness="109"
    underline-position="-48"
    stemh="108"
    stemv="120"
    unicode-range="U+0020-FB02"
  />
<missing-glyph horiz-adv-x="300" 
 />
    <glyph glyph-name=".notdef" horiz-adv-x="300" 
 />
    <glyph glyph-name="space" unicode=" " horiz-adv-x="300" 
 />
    <glyph glyph-name="exclam" unicode="!" horiz-adv-x="357" 
d="M249 669l-28 -478h-96l-28 478v55h152v-55zM251 0h-155v109h155v-109z" />
    <glyph glyph-name="quotedbl" unicode="&#x22;" horiz-adv-x="300" 
d="M112 701v-271h-68v271h68zM256 701v-271h-68v271h68z" />
    <glyph glyph-name="numbersign" unicode="#" horiz-adv-x="762" 
d="M682 502h-121l-18 -115h105v-93h-121l-29 -178h-100l30 178h-149l-30 -178h-100l29 178h-103v93h120l18 115h-105v93h121l21 129h100l-20 -129h148l21 129h100l-21 -129h104v-93zM462 502h-149l-19 -115h149z" />
    <glyph glyph-name="dollar" unicode="$" horiz-adv-x="949" 
d="M517 435c233 -12 346 -77 346 -210c0 -141 -118 -224 -346 -236v-55h-120v57c-148 12 -261 50 -345 118l65 87c86 -55 179 -87 280 -98v233c-215 6 -320 63 -320 185c0 125 110 203 320 216v41h120v-43c131 -18 231 -50 303 -103l-73 -80c-72 38 -148 62 -230 74v-186z
M397 443v183c-128 -5 -194 -39 -194 -94c0 -54 64 -83 194 -89zM517 94c143 9 216 54 216 123s-72 104 -216 108v-231z" />
    <glyph glyph-name="percent" unicode="%" horiz-adv-x="1144" 
d="M1068 183c0 -53 -21 -102 -60 -140c-38 -37 -87 -57 -141 -57s-104 20 -142 57c-40 38 -61 87 -61 140c0 52 21 101 61 140c38 37 88 57 142 57s103 -20 141 -57c39 -38 60 -88 60 -140zM964 724l-647 -734h-137l648 734h136zM480 542c0 -52 -21 -101 -60 -139
c-38 -37 -88 -57 -142 -57s-105 20 -142 56c-39 38 -60 87 -60 140s21 102 60 140c38 37 88 57 142 57s104 -20 142 -57c39 -39 60 -87 60 -140zM961 183c0 55 -41 97 -94 97c-55 0 -97 -42 -97 -97c0 -54 43 -97 97 -97c53 0 94 42 94 97zM373 542c0 55 -42 97 -95 97
c-54 0 -96 -42 -96 -97c0 -54 42 -97 96 -97c53 0 95 42 95 97z" />
    <glyph glyph-name="ampersand" unicode="&#x26;" horiz-adv-x="942" 
d="M881 -3c-94 5 -181 29 -263 72c-79 -54 -178 -82 -285 -82c-177 0 -292 96 -292 217c0 104 85 178 252 218c-25 40 -37 78 -37 120c0 40 14 79 39 111c41 53 106 84 176 84c117 0 196 -75 196 -182c0 -91 -65 -162 -188 -198c44 -56 92 -106 145 -151
c43 34 76 91 104 172h123c-27 -89 -74 -166 -140 -234c54 -24 111 -36 170 -36v-111zM411 444c92 11 139 50 139 114c0 42 -35 77 -83 77c-55 0 -93 -38 -93 -93c0 -28 13 -61 37 -98zM533 141c-63 57 -120 120 -172 189c-133 -21 -199 -65 -199 -130
c0 -63 68 -109 183 -109c57 0 119 17 188 50z" />
    <glyph glyph-name="quoteright" unicode="&#x2019;" horiz-adv-x="275" 
d="M215 587c0 -72 -42 -109 -125 -109h-23v59c50 0 75 15 75 42v36h-82v109h155v-137z" />
    <glyph glyph-name="parenleft" unicode="(" horiz-adv-x="432" 
d="M373 -141c-101 11 -164 51 -214 131c-53 85 -87 204 -87 334c0 128 33 249 87 336c51 82 113 122 214 133v-56h-2c-99 0 -180 -152 -180 -413s76 -409 181 -409h1v-56z" />
    <glyph glyph-name="parenright" unicode=")" horiz-adv-x="436" 
d="M58 793c101 -11 163 -52 213 -133c54 -88 88 -209 88 -336c0 -129 -34 -249 -87 -335c-50 -80 -113 -119 -214 -130v56h1c104 0 181 148 181 409c0 260 -81 413 -180 413h-2v56z" />
    <glyph glyph-name="asterisk" unicode="*" horiz-adv-x="576" 
d="M514 519l-170 -33l110 -134l-81 -58l-90 152l-89 -152l-81 58l110 134l-170 33l31 95l159 -61l-19 171h119l-19 -171l159 61z" />
    <glyph glyph-name="plus" unicode="+" horiz-adv-x="391" 
d="M267 0h-120v494l-98 -41v105c37 13 70 32 99 57h119v-615z" />
    <glyph glyph-name="comma" unicode="," horiz-adv-x="355" 
d="M255 -28c0 -72 -42 -109 -125 -109h-23v59c50 1 75 15 75 42v36h-82v109h155v-137z" />
    <glyph glyph-name="hyphen" unicode="-" horiz-adv-x="531" 
d="M471 265h-411v109h411v-109z" />
    <glyph glyph-name="period" unicode="." horiz-adv-x="355" 
d="M255 0h-155v109h155v-109z" />
    <glyph glyph-name="slash" unicode="/" horiz-adv-x="542" 
d="M571 724l-463 -734h-137l464 734h136z" />
    <glyph glyph-name="zero" unicode="0" horiz-adv-x="932" 
d="M846 362c0 -100 -39 -192 -113 -264c-72 -70 -164 -108 -267 -108c-101 0 -196 38 -267 108c-74 72 -113 164 -113 264c0 99 40 191 114 263c71 69 165 107 266 107c103 0 196 -37 267 -107c74 -72 113 -164 113 -263zM725 362c0 154 -107 263 -259 263
s-259 -109 -259 -263c0 -153 108 -263 259 -263s259 110 259 263z" />
    <glyph glyph-name="one" unicode="1" horiz-adv-x="383" 
d="M264 0h-120v604l-116 -50v104c44 14 83 36 117 66h119v-724z" />
    <glyph glyph-name="two" unicode="2" horiz-adv-x="838" 
d="M766 0h-735c8 183 104 297 301 359c94 29 177 43 234 74c35 20 52 44 52 78c0 67 -70 114 -195 114c-106 0 -196 -32 -283 -101l-76 80c112 87 228 129 361 129c192 0 323 -98 323 -230c0 -101 -62 -161 -191 -197c-70 -20 -141 -32 -209 -55c-86 -30 -142 -71 -175 -142
h593v-109z" />
    <glyph glyph-name="three" unicode="3" horiz-adv-x="861" 
d="M624 381c96 -32 147 -97 147 -178c0 -132 -135 -214 -383 -214c-158 0 -273 41 -373 147l80 80c90 -82 187 -118 306 -118c160 0 243 45 243 121c0 74 -95 108 -288 108c-18 0 -37 0 -57 -1v98h110c132 0 202 40 202 107c0 64 -65 94 -197 94c-102 0 -191 -26 -277 -81
l-69 74c111 77 222 115 345 115c205 0 322 -78 322 -197c0 -68 -38 -122 -111 -155z" />
    <glyph glyph-name="four" unicode="4" horiz-adv-x="811" 
d="M788 142h-166v-142h-120v142h-477v109l479 473h118v-473h166v-109zM502 251v346l-349 -346h349z" />
    <glyph glyph-name="five" unicode="5" horiz-adv-x="884" 
d="M182 416c83 34 165 51 249 51c227 0 363 -97 363 -234c0 -143 -136 -244 -352 -244c-171 0 -306 49 -402 147l94 64c77 -71 179 -106 306 -106c145 0 231 57 231 139c0 79 -89 133 -250 133c-92 0 -177 -21 -262 -65l-102 56l113 367h570v-109h-489z" />
    <glyph glyph-name="six" unicode="6" horiz-adv-x="914" 
d="M200 330c96 84 192 125 295 125c201 0 336 -98 336 -230c0 -143 -123 -237 -340 -237c-264 0 -416 141 -416 370c0 82 24 156 69 217c75 101 196 160 338 160c130 0 242 -47 318 -132l-88 -70c-53 60 -133 93 -230 93c-59 0 -112 -13 -158 -41
c-83 -50 -129 -128 -129 -210c0 -14 2 -29 5 -45zM227 220c43 -80 131 -121 261 -121c137 0 220 53 220 123c0 74 -86 132 -217 132c-105 0 -201 -48 -264 -134z" />
    <glyph glyph-name="seven" unicode="7" horiz-adv-x="765" 
d="M741 615l-472 -615h-138l471 615h-587v109h726v-109z" />
    <glyph glyph-name="eight" unicode="8" horiz-adv-x="893" 
d="M655 380c116 -32 178 -99 178 -178c0 -132 -135 -214 -386 -214s-387 82 -387 214c0 79 62 146 178 178c-83 27 -128 83 -128 150c0 124 119 202 335 202c217 0 338 -78 338 -202c0 -67 -45 -123 -128 -150zM663 529c0 64 -72 96 -216 96c-145 0 -217 -32 -217 -96
c0 -65 75 -105 217 -105s216 40 216 105zM708 212c0 76 -87 115 -261 115s-262 -39 -262 -115c0 -73 89 -114 262 -114s261 41 261 114z" />
    <glyph glyph-name="nine" unicode="9" horiz-adv-x="890" 
d="M669 396c-70 -81 -180 -128 -303 -128c-203 0 -328 89 -328 224c0 145 129 241 347 241c253 0 415 -149 415 -377c0 -107 -41 -199 -120 -269c-72 -64 -171 -100 -281 -100c-134 0 -243 42 -325 123l81 78c49 -58 132 -91 236 -91c42 0 82 7 121 22
c99 38 163 131 163 237c0 14 -1 27 -6 40zM642 508c-48 78 -139 119 -267 119c-135 0 -215 -52 -215 -125c0 -78 78 -130 211 -130c113 0 210 49 271 136z" />
    <glyph glyph-name="colon" unicode=":" horiz-adv-x="355" 
d="M255 364h-155v109h155v-109zM255 0h-155v109h155v-109z" />
    <glyph glyph-name="semicolon" unicode=";" horiz-adv-x="360" 
d="M255 364h-155v109h155v-109zM255 -28c0 -72 -42 -109 -125 -109h-23v59c50 1 75 15 75 42v36h-82v109h155v-137z" />
    <glyph glyph-name="less" unicode="&#x3c;" horiz-adv-x="776" 
d="M700 0h-643c7 110 45 189 121 245c69 51 141 67 207 86c110 31 171 46 171 97c0 58 -52 86 -157 86c-89 0 -166 -27 -240 -85l-78 80c101 76 207 114 320 114c175 0 284 -82 284 -195c0 -106 -66 -149 -206 -184c-130 -33 -227 -47 -278 -135h499v-109z" />
    <glyph glyph-name="equal" unicode="=" horiz-adv-x="780" 
d="M584 325c73 -37 109 -85 109 -146c0 -118 -116 -188 -336 -188c-137 0 -240 38 -332 131l76 75c79 -67 160 -97 258 -97c129 0 205 40 205 92c0 51 -78 77 -234 77c-19 0 -38 0 -59 -1v100c21 -1 41 -1 60 -1c137 0 205 25 205 80c0 42 -54 67 -159 67
c-83 0 -166 -24 -235 -70l-73 76c102 69 202 103 309 103c181 0 284 -68 284 -172c0 -51 -25 -91 -78 -126z" />
    <glyph glyph-name="greater" unicode="&#x3e;" horiz-adv-x="748" 
d="M702 116h-141v-116h-120v116h-414v108l414 391h120v-390h141v-109zM441 225v268l-285 -268h285z" />
    <glyph glyph-name="question" unicode="?" horiz-adv-x="727" 
d="M22 590c91 94 198 139 332 139c207 0 327 -85 327 -214c0 -97 -45 -143 -152 -173c-54 -15 -100 -24 -135 -41c-41 -20 -61 -55 -64 -110h-97c-1 8 -1 16 -1 24c0 102 50 156 160 195c97 34 160 45 160 109c0 66 -68 104 -198 104c-105 0 -189 -33 -249 -98zM361 0h-155
v109h155v-109z" />
    <glyph glyph-name="at" unicode="@" horiz-adv-x="830" 
d="M403 -19c-99 0 -184 33 -245 94c-61 60 -95 144 -95 239c0 52 10 102 31 147c57 126 190 209 343 209c65 0 128 -17 184 -49c92 -53 147 -149 147 -254c0 -138 -98 -240 -229 -240c-50 0 -83 18 -94 50c-30 -20 -59 -30 -89 -30c-71 0 -119 52 -119 133
c0 71 29 137 81 184c31 28 70 43 112 43c23 0 44 -6 65 -18l8 14h82c-51 -162 -73 -254 -73 -272c0 -29 16 -45 45 -45c75 0 123 66 123 178c0 143 -96 236 -243 236c-170 0 -284 -112 -284 -280c0 -180 94 -270 282 -270h6v-69h-38zM470 384c0 44 -12 64 -45 64
c-52 0 -107 -77 -107 -182c0 -37 16 -56 45 -56c54 0 107 74 107 174z" />
    <glyph glyph-name="A" unicode="A" horiz-adv-x="947" 
d="M932 0h-131l-84 162h-487l-84 -162h-131l383 724h151zM658 271l-184 350l-185 -350h369z" />
    <glyph glyph-name="B" unicode="B" horiz-adv-x="1057" 
d="M848 373c82 -28 124 -90 124 -183c0 -124 -93 -190 -274 -190h-577v724h585c149 0 236 -79 236 -198c0 -68 -29 -116 -94 -153zM708 421c67 0 117 44 117 98c0 58 -43 96 -112 96h-472v-194h467zM699 109c102 0 150 29 150 98c0 72 -42 105 -131 105h-477v-203h458z" />
    <glyph glyph-name="C" unicode="C" horiz-adv-x="1046" 
d="M966 559l-109 -39c-76 81 -175 117 -308 117c-202 0 -339 -116 -339 -273c0 -163 132 -274 346 -274c130 0 225 36 302 119l103 -57c-105 -123 -232 -172 -412 -172c-126 0 -240 36 -319 96c-97 73 -145 170 -145 288c0 116 49 212 147 286c80 61 193 97 317 97
c178 0 322 -65 417 -188z" />
    <glyph glyph-name="D" unicode="D" horiz-adv-x="1065" 
d="M579 724c253 0 410 -146 410 -370c0 -102 -40 -191 -117 -258c-70 -62 -165 -96 -270 -96h-481v724h458zM612 109c144 0 247 103 247 248c0 154 -108 258 -270 258h-348v-506h371z" />
    <glyph glyph-name="E" unicode="E" horiz-adv-x="939" 
d="M879 0h-758v724h730v-109h-610v-185h424v-109h-424v-212h638v-109z" />
    <glyph glyph-name="F" unicode="F" horiz-adv-x="871" 
d="M851 615h-610v-185h424v-109h-424v-321h-120v724h730v-109z" />
    <glyph glyph-name="G" unicode="G" horiz-adv-x="1092" 
d="M1009 374c0 -235 -182 -395 -462 -395c-126 0 -240 37 -319 97c-96 73 -145 169 -145 287c0 116 49 212 147 286c82 63 196 98 327 98c162 0 287 -55 392 -175l-112 -56c-73 78 -166 121 -290 121c-90 0 -173 -26 -231 -68c-72 -53 -108 -122 -108 -206
c0 -161 134 -274 339 -274c157 0 266 67 312 187h-337v109h487v-11z" />
    <glyph glyph-name="H" unicode="H" horiz-adv-x="1062" 
d="M941 0h-120v321h-580v-321h-120v724h120v-294h580v294h120v-724z" />
    <glyph glyph-name="I" unicode="I" horiz-adv-x="362" 
d="M241 0h-120v724h120v-724z" />
    <glyph glyph-name="J" unicode="J" horiz-adv-x="788" 
d="M680 232c0 -164 -113 -254 -328 -254c-195 0 -303 88 -311 250h122c11 -103 70 -141 196 -141c140 0 201 38 201 145v492h120v-492z" />
    <glyph glyph-name="K" unicode="K" horiz-adv-x="961" 
d="M961 0h-154l-348 381l-218 -161v-220h-120v724h120v-375l507 375h173l-370 -274z" />
    <glyph glyph-name="L" unicode="L" horiz-adv-x="820" 
d="M800 0h-679v724h120v-615h559v-109z" />
    <glyph glyph-name="M" unicode="M" horiz-adv-x="1237" 
d="M1116 0h-120v592h-3l-376 -472l-373 472h-3v-592h-120v724h149l348 -438l349 438h149v-724z" />
    <glyph glyph-name="N" unicode="N" horiz-adv-x="1064" 
d="M943 0h-148l-554 594v-594h-120v724h149l553 -594v594h120v-724z" />
    <glyph glyph-name="O" unicode="O" horiz-adv-x="1096" 
d="M1013 363c0 -118 -49 -215 -146 -288c-80 -60 -192 -96 -318 -96s-241 37 -320 97c-97 73 -146 169 -146 287c0 116 50 212 148 286c81 61 194 98 318 98c123 0 237 -37 317 -98c97 -74 147 -171 147 -286zM888 363c0 84 -36 153 -108 206c-58 42 -140 68 -231 68
c-202 0 -341 -116 -341 -274c0 -163 133 -274 341 -274c207 0 339 112 339 274z" />
    <glyph glyph-name="P" unicode="P" horiz-adv-x="953" 
d="M695 724c148 0 241 -89 241 -226c0 -143 -92 -222 -264 -222h-431v-276h-120v724h574zM674 385c91 0 139 39 139 111c0 80 -49 119 -147 119h-425v-230h433z" />
    <glyph glyph-name="Q" unicode="Q" horiz-adv-x="1096" 
d="M681 -5c-45 -10 -89 -15 -132 -15c-126 0 -239 37 -319 97c-98 74 -147 169 -147 287c0 116 50 212 148 286c81 61 194 98 318 98c123 0 237 -37 317 -98c98 -74 147 -170 147 -286c0 -146 -75 -260 -221 -332l90 -99l-112 -36zM712 120c116 47 176 132 176 244
c0 85 -37 154 -109 207c-58 42 -140 68 -230 68c-91 0 -174 -26 -232 -68c-73 -53 -109 -122 -109 -207c0 -161 134 -274 341 -274c13 0 27 1 43 2l-78 87l114 34z" />
    <glyph glyph-name="R" unicode="R" horiz-adv-x="1008" 
d="M942 0h-139l-196 276h-366v-276h-120v724h571c152 0 244 -88 244 -228c0 -128 -80 -196 -188 -214zM674 385c90 0 139 40 139 111c0 80 -49 119 -150 119h-422v-230h433z" />
    <glyph glyph-name="S" unicode="S" horiz-adv-x="939" 
d="M755 554c-108 55 -214 82 -328 82c-150 0 -229 -38 -229 -98c0 -33 21 -55 63 -70c79 -28 198 -19 345 -38c180 -23 266 -85 266 -206c0 -152 -138 -241 -395 -241c-184 0 -326 39 -431 122l66 87c116 -71 234 -104 366 -104c172 0 264 50 264 128
c0 103 -123 103 -336 117c-223 15 -335 50 -335 189c0 135 130 220 365 220c156 0 287 -36 392 -107z" />
    <glyph glyph-name="T" unicode="T" horiz-adv-x="852" 
d="M832 615h-346v-615h-120v615h-346v109h812v-109z" />
    <glyph glyph-name="U" unicode="U" horiz-adv-x="1052" 
d="M936 234c0 -148 -156 -256 -409 -256c-254 0 -411 109 -411 256v490h120v-461c0 -112 100 -175 291 -175c190 0 289 63 289 175v461h120v-490z" />
    <glyph glyph-name="V" unicode="V" horiz-adv-x="928" 
d="M923 724l-390 -724h-138l-390 724h134l325 -604l325 604h134z" />
    <glyph glyph-name="W" unicode="W" horiz-adv-x="1186" 
d="M1166 724l-237 -724h-155l-181 605l-181 -605h-153l-239 724h134l182 -606l181 606h152l181 -606l182 606h134z" />
    <glyph glyph-name="X" unicode="X" horiz-adv-x="921" 
d="M908 0h-156l-292 292l-291 -292h-156l369 367l-356 357h156l279 -282l278 282h156l-356 -357z" />
    <glyph glyph-name="Y" unicode="Y" horiz-adv-x="922" 
d="M917 724l-396 -438v-286h-120v286l-396 438h149l308 -338l306 338h149z" />
    <glyph glyph-name="Z" unicode="Z" horiz-adv-x="887" 
d="M837 0h-787v109l598 506h-589v109h751v-109l-598 -506h625v-109z" />
    <glyph glyph-name="bracketleft" unicode="[" horiz-adv-x="450" 
d="M413 -141h-283v934h283v-56h-163v-822h163v-56z" />
    <glyph glyph-name="backslash" unicode="\" horiz-adv-x="542" 
d="M571 -10h-137l-463 734h136z" />
    <glyph glyph-name="bracketright" unicode="]" horiz-adv-x="443" 
d="M321 -141h-283v56h163v822h-163v56h283v-934z" />
    <glyph glyph-name="asciicircum" unicode="^" horiz-adv-x="786" 
d="M211 368c67 23 133 35 198 35c198 0 316 -84 316 -202c0 -123 -118 -210 -308 -210c-142 0 -253 39 -355 131l94 69c77 -63 159 -90 259 -90c121 0 188 39 188 100c0 62 -74 106 -204 106c-77 0 -149 -18 -222 -55l-98 52l100 311h500v-109h-418z" />
    <glyph glyph-name="underscore" unicode="_" 
d="M500 -166v-70h-500v70h500z" />
    <glyph glyph-name="quoteleft" unicode="&#x2018;" horiz-adv-x="275" 
d="M215 478h-155v137c0 72 42 109 125 109h23v-59c-50 -1 -75 -14 -75 -42v-36h82v-109z" />
    <glyph glyph-name="a" unicode="a" horiz-adv-x="845" 
d="M832 0h-132l-71 132h-413l-71 -132h-132l335 615h149zM569 241l-146 272l-147 -272h293z" />
    <glyph glyph-name="b" unicode="b" horiz-adv-x="916" 
d="M748 318c68 -35 98 -81 98 -152c0 -107 -83 -166 -241 -166h-500v615h506c132 0 210 -70 210 -171c0 -53 -23 -93 -73 -126zM613 365c57 0 91 29 91 72c0 42 -32 69 -87 69h-392v-141h388zM605 109c77 0 120 28 120 70c0 48 -38 77 -110 77h-390v-147h380z" />
    <glyph glyph-name="c" unicode="c" horiz-adv-x="904" 
d="M841 467l-110 -38c-62 63 -144 98 -251 98c-176 0 -287 -90 -287 -217c0 -130 109 -219 289 -219c105 0 184 31 251 101l103 -55c-96 -108 -205 -153 -357 -153c-248 0 -411 137 -411 326c0 99 43 180 129 243c69 50 168 82 275 82c154 0 274 -54 369 -168z" />
    <glyph glyph-name="d" unicode="d" horiz-adv-x="920" 
d="M503 615c218 0 358 -128 358 -303c0 -93 -34 -158 -103 -232c-36 -39 -130 -80 -235 -80h-418v615h398zM531 109c118 0 201 82 201 195c0 121 -87 202 -220 202h-287v-397h306z" />
    <glyph glyph-name="e" unicode="e" horiz-adv-x="817" 
d="M767 0h-662v615h639v-109h-519v-132h361v-109h-361v-156h542v-109z" />
    <glyph glyph-name="f" unicode="f" horiz-adv-x="769" 
d="M744 506h-519v-132h361v-109h-361v-265h-120v615h639v-109z" />
    <glyph glyph-name="g" unicode="g" horiz-adv-x="941" 
d="M873 337v-19c0 -199 -157 -336 -401 -336c-109 0 -206 31 -275 81c-86 63 -129 145 -129 246c0 99 43 181 129 244c71 52 170 83 282 83c137 0 247 -46 338 -143l-113 -56c-64 61 -140 90 -232 90c-164 0 -280 -94 -280 -218c0 -128 111 -219 280 -219
c124 0 211 49 251 138h-277v109h427z" />
    <glyph glyph-name="h" unicode="h" horiz-adv-x="925" 
d="M820 0h-120v265h-475v-265h-120v615h120v-241h475v241h120v-615z" />
    <glyph glyph-name="i" unicode="i" horiz-adv-x="330" 
d="M225 0h-120v615h120v-615z" />
    <glyph glyph-name="j" unicode="j" horiz-adv-x="700" 
d="M595 200c0 -141 -99 -218 -287 -218c-173 0 -265 75 -274 224h121c9 -86 56 -117 158 -117c113 0 162 28 162 111v415h120v-415z" />
    <glyph glyph-name="k" unicode="k" horiz-adv-x="849" 
d="M848 0h-155l-293 312l-175 -126v-186h-120v615h120v-301l419 301h177l-328 -236z" />
    <glyph glyph-name="l" unicode="l" horiz-adv-x="725" 
d="M700 0h-595v615h120v-506h475v-109z" />
    <glyph glyph-name="m" unicode="m" horiz-adv-x="1073" 
d="M968 0h-120v510l-3 -4l-309 -419l-308 423l-3 -4v-506h-120v615h180l251 -348l252 348h180v-615z" />
    <glyph glyph-name="n" unicode="n" horiz-adv-x="927" 
d="M822 0h-179l-418 513v-513h-120v615h179l418 -513v513h120v-615z" />
    <glyph glyph-name="o" unicode="o" horiz-adv-x="945" 
d="M877 309c0 -101 -43 -183 -129 -246c-69 -51 -166 -81 -275 -81s-207 31 -276 81c-86 63 -129 145 -129 246c0 99 43 181 130 244c70 51 169 83 275 83s204 -32 274 -83c86 -63 130 -145 130 -244zM752 309c0 125 -113 218 -279 218c-167 0 -281 -94 -281 -218
c0 -129 110 -219 281 -219c170 0 279 90 279 219z" />
    <glyph glyph-name="p" unicode="p" horiz-adv-x="836" 
d="M602 615c131 0 214 -77 214 -195c0 -124 -83 -194 -234 -194h-357v-226h-120v615h497zM584 335c72 0 109 29 109 83c0 61 -37 88 -116 88h-352v-171h359z" />
    <glyph glyph-name="q" unicode="q" horiz-adv-x="945" 
d="M582 -7c-38 -7 -74 -11 -109 -11c-109 0 -207 32 -276 82c-86 63 -129 144 -129 245c0 99 43 182 129 245c70 52 169 83 276 83s206 -32 275 -83c86 -63 129 -146 129 -245c0 -121 -61 -216 -182 -278l77 -84l-114 -35zM614 116c91 39 138 105 138 193
c0 125 -113 219 -279 219c-167 0 -281 -94 -281 -219c0 -129 109 -219 281 -219h18l-68 72l115 34z" />
    <glyph glyph-name="r" unicode="r" horiz-adv-x="894" 
d="M829 0h-138l-161 226h-305v-226h-120v615h497c131 0 214 -77 214 -195c0 -99 -53 -165 -153 -187zM584 335c72 0 109 29 109 83c0 61 -37 88 -116 88h-352v-171h359z" />
    <glyph glyph-name="s" unicode="s" horiz-adv-x="814" 
d="M662 463c-82 43 -167 63 -261 63c-136 0 -205 -25 -205 -73c0 -67 109 -57 287 -75c193 -19 286 -63 286 -185c0 -131 -120 -207 -345 -207c-158 0 -283 35 -379 108l65 85c83 -58 189 -89 312 -89c142 0 218 39 218 97c0 32 -23 56 -70 69c-67 19 -162 13 -278 24
c-151 14 -222 62 -222 160c0 116 118 191 329 191c138 0 251 -30 337 -90z" />
    <glyph glyph-name="t" unicode="t" horiz-adv-x="758" 
d="M733 506h-294v-506h-120v506h-294v109h708v-109z" />
    <glyph glyph-name="u" unicode="u" horiz-adv-x="911" 
d="M813 202c0 -127 -136 -220 -357 -220c-222 0 -358 93 -358 220v413h120v-389c0 -88 81 -136 238 -136c156 0 237 49 237 136v389h120v-413z" />
    <glyph glyph-name="v" unicode="v" horiz-adv-x="828" 
d="M823 615l-340 -615h-138l-340 615h133l276 -511l276 511h133z" />
    <glyph glyph-name="w" unicode="w" horiz-adv-x="1040" 
d="M1020 615l-209 -615h-144l-147 514l-147 -514h-144l-209 615h133l148 -511l147 511h144l147 -511l148 511h133z" />
    <glyph glyph-name="x" unicode="x" horiz-adv-x="818" 
d="M805 0h-151l-245 241l-245 -241h-151l320 312l-309 303h151l234 -232l234 232h151l-309 -303z" />
    <glyph glyph-name="y" unicode="y" horiz-adv-x="828" 
d="M823 615l-350 -373v-242h-120v242l-348 373h146l263 -280l263 280h146z" />
    <glyph glyph-name="z" unicode="z" horiz-adv-x="767" 
d="M727 0h-687v109l492 397h-485v109h657v-109l-493 -397h516v-109z" />
    <glyph glyph-name="braceleft" unicode="{" horiz-adv-x="413" 
d="M363 -141c-182 0 -234 38 -234 185c0 44 2 82 2 116c0 54 -6 95 -40 125c-14 12 -37 25 -69 41c73 32 109 73 109 126v183c0 118 60 158 200 158h32v-56c-77 0 -112 -37 -112 -116c0 -20 1 -48 1 -83c0 -111 -17 -180 -56 -210v-2c41 -31 57 -97 57 -205
c0 -30 -2 -63 -2 -98c0 -74 35 -108 109 -108h3v-56z" />
    <glyph glyph-name="bar" unicode="|" horiz-adv-x="785" 
d="M184 298c63 62 147 95 245 95c173 0 294 -87 294 -194c0 -121 -117 -209 -298 -209c-219 0 -362 130 -362 314c0 70 21 134 61 186c66 86 171 135 295 135c102 0 192 -39 282 -120l-89 -66c-52 53 -113 75 -195 75c-134 0 -233 -87 -233 -203v-13zM213 196
c33 -59 110 -96 212 -96c112 0 176 38 176 92c0 55 -67 100 -176 100c-89 0 -164 -34 -212 -96z" />
    <glyph glyph-name="braceright" unicode="}" horiz-adv-x="405" 
d="M380 326c-87 -36 -114 -84 -114 -185c0 -34 7 -66 7 -97c0 -144 -53 -185 -228 -185h-6v56h3c77 0 109 35 109 114c0 28 -2 58 -2 90c0 110 17 178 57 207v2c-38 28 -56 97 -56 209c0 20 1 49 1 87c0 75 -36 113 -109 113h-3v56h32c140 0 200 -41 200 -158v-183
c0 -54 36 -94 109 -126z" />
    <glyph glyph-name="asciitilde" unicode="~" horiz-adv-x="714" 
d="M669 506l-406 -506h-140l407 506h-496v109h635v-109z" />
    <glyph glyph-name="exclamdown" unicode="&#xa1;" horiz-adv-x="357" 
d="M261 615h-155v109h155v-109zM260 0h-152v55l28 478h96l28 -478v-55z" />
    <glyph glyph-name="cent" unicode="&#xa2;" horiz-adv-x="790" 
d="M715 474l-106 -36c-41 40 -90 64 -147 72v-293c59 6 108 29 149 71l99 -51c-66 -76 -148 -117 -248 -126v-111h-120v111c-176 30 -267 118 -267 251c0 128 93 219 267 252v110h120v-112c103 -12 187 -58 253 -138zM342 216v293c-87 -24 -135 -79 -135 -147
c0 -71 47 -123 135 -146z" />
    <glyph glyph-name="sterling" unicode="&#xa3;" horiz-adv-x="733" 
d="M704 31c-53 -24 -100 -37 -146 -37c-78 0 -165 32 -261 32c-65 0 -126 -17 -188 -50l-68 108c80 63 120 127 120 197c0 13 -3 29 -8 48h-119v96h88c-7 27 -11 51 -11 73c0 143 116 236 308 236c99 0 184 -31 266 -96l-60 -91c-66 54 -135 79 -217 79
c-119 0 -177 -43 -177 -131c0 -20 5 -43 14 -70h261v-96h-237c4 -21 6 -40 6 -59c0 -56 -22 -111 -57 -143c24 2 44 3 59 3c96 0 183 -29 259 -29c38 0 75 9 113 29z" />
    <glyph glyph-name="fraction" unicode="&#x2044;" horiz-adv-x="294" 
d="M539 724l-647 -734h-137l648 734h136z" />
    <glyph glyph-name="yen" unicode="&#xa5;" horiz-adv-x="944" 
d="M924 724l-270 -299h98v-96h-185l-39 -43v-42h224v-96h-224v-148h-120v148h-224v96h224v42l-39 43h-185v96h98l-270 299h149l308 -338l306 338h149z" />
    <glyph glyph-name="florin" unicode="&#x192;" horiz-adv-x="553" 
d="M537 710l-38 -94c-28 13 -50 20 -67 20c-32 0 -54 -18 -61 -52l-32 -159h105v-96h-124l-60 -322c-13 -71 -78 -126 -157 -126c-30 0 -65 7 -104 21l27 96c25 -13 48 -20 69 -20c26 0 39 10 43 31l60 320h-93v96h111c32 214 83 312 207 312c32 0 69 -9 114 -27z" />
    <glyph glyph-name="section" unicode="&#xa7;" horiz-adv-x="904" 
d="M705 656c-95 48 -188 71 -285 71c-125 0 -192 -31 -192 -78c0 -26 18 -43 54 -55c56 -18 137 -16 237 -26c197 -20 292 -63 292 -187c0 -53 -17 -89 -61 -119c33 -34 48 -70 48 -115c0 -133 -121 -211 -347 -211c-161 0 -287 35 -382 109l67 88c104 -65 207 -96 319 -96
c141 0 218 41 218 103c0 35 -23 60 -70 73c-69 20 -165 15 -283 26c-154 14 -226 62 -226 162c0 55 19 91 67 122c-38 31 -54 65 -54 112c0 119 114 194 321 194c146 0 260 -30 348 -97zM651 312c24 18 35 37 35 62c0 41 -36 70 -104 82c-81 15 -180 6 -296 23
c-47 -13 -71 -34 -71 -64c0 -40 45 -61 135 -71c78 -8 181 -4 301 -32z" />
    <glyph glyph-name="currency" unicode="&#xa4;" horiz-adv-x="801" 
d="M735 306c0 -110 -55 -208 -148 -264c-56 -34 -119 -52 -187 -52s-131 18 -187 52c-92 56 -147 154 -147 264c0 86 35 165 101 228c61 58 143 90 235 90c91 0 174 -32 234 -90c65 -62 99 -142 99 -228zM614 306c0 121 -88 208 -214 208c-125 0 -213 -86 -213 -208
c0 -120 89 -205 215 -205c125 0 212 85 212 205z" />
    <glyph glyph-name="quotesingle" unicode="'" horiz-adv-x="155" 
d="M112 701v-271h-68v271h68z" />
    <glyph glyph-name="quotedblleft" unicode="&#x201c;" horiz-adv-x="513" 
d="M453 478h-155v137c0 72 42 109 125 109h23v-59c-50 -1 -75 -14 -75 -42v-36h82v-109zM215 478h-155v137c0 72 42 109 125 109h23v-59c-50 -1 -75 -14 -75 -42v-36h82v-109z" />
    <glyph glyph-name="guillemotleft" unicode="&#xab;" horiz-adv-x="724" 
d="M649 484l-161 -163l159 -162h-147l-166 162l170 163h145zM390 484l-162 -163l159 -162h-147l-165 162l169 163h146z" />
    <glyph glyph-name="guilsinglleft" unicode="&#x2039;" horiz-adv-x="460" 
d="M387 484l-161 -163l159 -162h-147l-165 162l169 163h145z" />
    <glyph glyph-name="guilsinglright" unicode="&#x203a;" horiz-adv-x="460" 
d="M387 321l-165 -162h-147l159 162l-161 163h145z" />
    <glyph glyph-name="fi" unicode="&#xfb01;" horiz-adv-x="1099" 
d="M994 0h-120v615h120v-615zM744 506h-519v-132h361v-109h-361v-265h-120v615h639v-109z" />
    <glyph glyph-name="fl" unicode="&#xfb02;" horiz-adv-x="1494" 
d="M1469 0h-595v615h120v-506h475v-109zM744 506h-519v-132h361v-109h-361v-265h-120v615h639v-109z" />
    <glyph glyph-name="endash" unicode="&#x2013;" horiz-adv-x="845" 
d="M777 265h-717v109h717v-109z" />
    <glyph glyph-name="dagger" unicode="&#x2020;" horiz-adv-x="450" 
d="M412 476h-147l24 -548h-130l21 548h-151v101h146l-18 216h132l-20 -216h143v-101z" />
    <glyph glyph-name="daggerdbl" unicode="&#x2021;" horiz-adv-x="477" 
d="M422 140h-133l10 -212h-130l8 212h-138v101h141l10 235h-151v101h146l-18 216h132l-20 -216h143v-101h-147l10 -235h137v-101z" />
    <glyph glyph-name="periodcentered" unicode="&#xb7;" horiz-adv-x="465" 
d="M310 265h-155v109h155v-109z" />
    <glyph glyph-name="paragraph" unicode="&#xb6;" horiz-adv-x="945" 
d="M796 -165h-120v441h-130v-441h-120v441h-112c-172 0 -264 79 -264 222c0 137 93 226 241 226h505v-889zM676 385v230h-130v-230h130zM426 385v230h-106c-99 0 -147 -39 -147 -119c0 -72 48 -111 139 -111h114z" />
    <glyph glyph-name="bullet" unicode="&#x2022;" horiz-adv-x="532" 
d="M448 355c0 -46 -19 -89 -55 -123c-33 -32 -77 -49 -126 -49s-94 18 -127 49c-36 34 -55 77 -55 123s19 89 55 123c33 32 78 49 127 49s93 -17 126 -49c36 -34 55 -77 55 -123z" />
    <glyph glyph-name="quotesinglbase" unicode="&#x201a;" horiz-adv-x="365" 
d="M260 -28c0 -73 -42 -109 -125 -109h-23v59c50 1 75 15 75 42v36h-82v109h155v-137z" />
    <glyph glyph-name="quotedblbase" unicode="&#x201e;" horiz-adv-x="593" 
d="M488 -28c0 -73 -42 -109 -125 -109h-23v59c50 1 75 15 75 42v36h-82v109h155v-137zM260 -28c0 -73 -42 -109 -125 -109h-23v59c50 1 75 15 75 42v36h-82v109h155v-137z" />
    <glyph glyph-name="quotedblright" unicode="&#x201d;" horiz-adv-x="513" 
d="M453 587c0 -72 -42 -109 -125 -109h-23v59c50 0 75 15 75 42v36h-82v109h155v-137zM215 587c0 -72 -42 -109 -125 -109h-23v59c50 0 75 15 75 42v36h-82v109h155v-137z" />
    <glyph glyph-name="guillemotright" unicode="&#xbb;" horiz-adv-x="724" 
d="M649 321l-165 -162h-147l159 162l-162 163h146zM390 321l-166 -162h-147l159 162l-161 163h145z" />
    <glyph glyph-name="ellipsis" unicode="&#x2026;" horiz-adv-x="785" 
d="M600 317c-66 -63 -152 -96 -257 -96c-167 0 -282 85 -282 193c0 125 116 210 303 210c219 0 360 -131 360 -315c0 -70 -21 -133 -62 -185c-67 -85 -174 -135 -299 -135c-123 0 -220 33 -283 94l84 82c62 -45 123 -67 191 -67c150 0 246 85 246 204c0 2 0 7 -1 15z
M571 418c-39 63 -111 94 -216 94c-111 0 -173 -39 -173 -96c0 -54 63 -93 170 -93c97 0 175 35 219 95z" />
    <glyph glyph-name="perthousand" unicode="&#x2030;" horiz-adv-x="1573" 
d="M1512 183c0 -53 -21 -102 -60 -140c-38 -37 -87 -57 -141 -57s-104 20 -142 57c-39 38 -60 87 -60 140c0 52 21 102 60 140c38 37 88 57 142 57s103 -20 141 -57c39 -38 60 -88 60 -140zM1039 183c0 -53 -21 -102 -60 -140c-38 -37 -88 -57 -142 -57s-104 20 -142 57
c-39 38 -60 87 -60 140c0 52 21 102 60 140c38 37 88 57 142 57s104 -20 142 -57c39 -38 60 -88 60 -140zM934 724l-646 -734h-137l647 734h136zM450 542c0 -52 -21 -101 -60 -139c-38 -37 -87 -57 -141 -57c-55 0 -105 20 -142 56c-39 38 -60 87 -60 140s21 102 60 140
c38 37 88 57 142 57s103 -20 141 -57c39 -38 60 -87 60 -140zM1405 183c0 55 -41 97 -94 97c-54 0 -96 -42 -96 -97c0 -54 42 -97 96 -97c53 0 94 42 94 97zM932 183c0 55 -42 97 -95 97c-54 0 -96 -42 -96 -97c0 -54 42 -97 96 -97c53 0 95 42 95 97zM343 542
c0 55 -41 97 -94 97c-55 0 -96 -42 -96 -97c0 -54 42 -97 96 -97c53 0 94 42 94 97z" />
    <glyph glyph-name="questiondown" unicode="&#xbf;" horiz-adv-x="727" 
d="M521 615h-155v109h155v-109zM705 134c-90 -94 -198 -139 -332 -139c-207 0 -327 85 -327 214c0 96 45 143 151 173c55 16 102 23 136 40c41 20 61 56 64 111h97c1 -13 1 -21 1 -24c0 -102 -50 -156 -160 -195c-97 -34 -160 -45 -160 -109c0 -66 68 -104 198 -104
c105 0 189 33 249 98z" />
    <glyph glyph-name="grave" unicode="`" 
d="M313 669h-61l-124 166h116z" />
    <glyph glyph-name="acute" unicode="&#xb4;" 
d="M374 835l-124 -166h-61l69 166h116z" />
    <glyph glyph-name="circumflex" unicode="&#x2c6;" 
d="M443 668h-102l-91 99l-91 -99h-102l153 166h80z" />
    <glyph glyph-name="tilde" unicode="&#x2dc;" 
d="M420 769c-30 -56 -64 -84 -103 -84c-54 0 -100 37 -129 37c-16 0 -34 -16 -53 -48l-59 46c43 51 73 78 108 78c47 0 92 -38 128 -38c22 0 35 15 54 46z" />
    <glyph glyph-name="macron" unicode="&#xaf;" 
d="M421 701h-343v74h343v-74z" />
    <glyph glyph-name="breve" unicode="&#x2d8;" 
d="M398 797c-20 -89 -66 -129 -147 -129s-127 41 -148 129h83c8 -39 28 -57 65 -57s57 18 65 57h82z" />
    <glyph glyph-name="dotaccent" unicode="&#x2d9;" 
d="M314 746c0 -34 -29 -62 -64 -62s-63 28 -63 62c0 35 29 64 63 64c35 0 64 -29 64 -64z" />
    <glyph glyph-name="dieresis" unicode="&#xa8;" 
d="M415 746c0 -33 -29 -62 -64 -62s-63 28 -63 62c0 35 29 64 63 64s64 -30 64 -64zM214 746c0 -34 -29 -62 -64 -62s-63 28 -63 62c0 35 29 64 63 64c35 0 64 -29 64 -64z" />
    <glyph glyph-name="ring" unicode="&#x2da;" 
d="M363 760c0 -51 -48 -92 -113 -92s-112 41 -112 92s48 93 112 93c65 0 113 -42 113 -93zM303 760c0 22 -23 42 -53 42c-31 0 -53 -20 -53 -42s21 -41 53 -41c30 0 53 19 53 41z" />
    <glyph glyph-name="cedilla" unicode="&#xb8;" 
d="M251 -46c52 -5 80 -33 80 -76c0 -49 -41 -84 -109 -84c-32 0 -63 6 -96 19l19 36c21 -8 38 -12 52 -12c30 0 51 18 51 38c0 14 -10 24 -25 24c-10 0 -19 -6 -27 -17l-31 14c20 36 40 74 59 111h60z" />
    <glyph glyph-name="hungarumlaut" unicode="&#x2dd;" 
d="M464 834l-107 -166h-61l52 166h116zM286 834l-107 -166h-61l52 166h116z" />
    <glyph glyph-name="ogonek" unicode="&#x2db;" 
d="M350 -189c-33 -11 -64 -16 -95 -16c-80 0 -123 34 -123 95c0 51 36 91 109 119h96c-74 -36 -111 -74 -111 -117c0 -34 21 -55 55 -55c12 0 30 4 55 12z" />
    <glyph glyph-name="caron" unicode="&#x2c7;" 
d="M444 834l-153 -166h-80l-153 166h102l91 -99l91 99h102z" />
    <glyph glyph-name="emdash" unicode="&#x2014;" horiz-adv-x="975" 
d="M915 265h-855v109h855v-109z" />
    <glyph glyph-name="AE" unicode="&#xc6;" horiz-adv-x="1402" 
d="M1342 0h-758v162h-324l-113 -162h-132l511 724h788v-109h-610v-185h424v-109h-424v-212h638v-109zM584 271v349l-246 -349h246z" />
    <glyph glyph-name="ordfeminine" unicode="&#xaa;" horiz-adv-x="558" 
d="M558 311h-99l-47 87h-266l-47 -87h-99l227 415h104zM367 480l-88 164l-88 -164h176z" />
    <glyph glyph-name="Lslash" unicode="&#x141;" horiz-adv-x="820" 
d="M800 0h-679v207l-49 -31v130l49 31v387h120v-313l243 151v-129l-243 -152v-172h559v-109z" />
    <glyph glyph-name="Oslash" unicode="&#xd8;" horiz-adv-x="1096" 
d="M836 669c117 -74 177 -178 177 -306c0 -118 -49 -214 -146 -288c-79 -60 -192 -96 -318 -96c-82 0 -161 17 -240 50l-61 -73h-95l91 110c-107 73 -161 173 -161 297c0 116 50 212 148 286c81 61 194 98 318 98c74 0 147 -15 221 -44l61 74h94zM382 119
c54 -20 108 -30 167 -30c207 0 339 112 339 274c0 90 -40 159 -125 217zM695 613c-49 16 -97 24 -146 24c-91 0 -174 -26 -232 -68c-73 -52 -109 -121 -109 -206c0 -87 34 -151 108 -209z" />
    <glyph glyph-name="OE" unicode="&#x152;" horiz-adv-x="1533" 
d="M1473 0h-935c-124 0 -234 33 -310 87c-97 69 -145 160 -145 274c0 112 49 203 145 273c77 56 186 90 307 90h910v-109h-610v-185h424v-109h-424v-212h638v-109zM715 170v393c0 30 -32 48 -96 51h-84c-199 0 -327 -105 -327 -253c0 -153 123 -252 328 -252h89
c59 0 90 23 90 61z" />
    <glyph glyph-name="ordmasculine" unicode="&#xba;" horiz-adv-x="608" 
d="M568 521c0 -124 -107 -214 -264 -214c-156 0 -264 91 -264 214c0 121 110 214 264 214c155 0 264 -93 264 -214zM477 521c0 76 -70 133 -173 133s-173 -57 -173 -133c0 -79 68 -134 173 -134s173 56 173 134z" />
    <glyph glyph-name="ae" unicode="&#xe6;" horiz-adv-x="1217" 
d="M1167 0h-662v132h-274l-98 -132h-120l447 615h684v-109h-519v-132h361v-109h-361v-156h542v-109zM505 241v268l-195 -268h195z" />
    <glyph glyph-name="dotlessi" unicode="&#x131;" horiz-adv-x="330" 
d="M225 0h-120v615h120v-615z" />
    <glyph glyph-name="lslash" unicode="&#x142;" horiz-adv-x="725" 
d="M700 0h-595v164l-42 -26v128l42 26v323h120v-251l207 125v-128l-207 -125v-127h475v-109z" />
    <glyph glyph-name="oslash" unicode="&#xf8;" horiz-adv-x="945" 
d="M727 566c99 -63 150 -150 150 -257c0 -101 -43 -183 -129 -246c-69 -51 -166 -81 -275 -81c-67 0 -132 13 -198 39l-55 -66h-92l83 99c-95 63 -143 149 -143 255c0 99 43 181 130 244c70 51 169 83 275 83c62 0 125 -12 191 -37l47 55h91zM349 110c40 -14 80 -20 124 -20
c170 0 279 90 279 219c0 71 -31 124 -98 170zM589 509c-40 12 -79 18 -116 18c-167 0 -281 -94 -281 -218c0 -70 28 -122 91 -168z" />
    <glyph glyph-name="oe" unicode="&#x153;" horiz-adv-x="1318" 
d="M1268 0h-805c-107 0 -201 28 -267 73c-86 59 -128 136 -128 234c0 96 42 174 127 233c67 47 161 75 265 75h785v-109h-519v-132h361v-109h-361v-156h542v-109zM606 137v334c0 24 -21 35 -63 35h-83c-163 0 -267 -83 -267 -199c0 -121 98 -198 267 -198h76
c47 0 70 9 70 28z" />
    <glyph glyph-name="germandbls" unicode="&#xdf;" horiz-adv-x="1583" 
d="M1431 463c-82 43 -167 63 -262 63c-136 0 -204 -26 -204 -73c0 -67 108 -57 287 -75c193 -19 286 -64 286 -185c0 -130 -121 -207 -345 -207c-158 0 -283 35 -379 108l65 85c83 -58 189 -89 312 -89c142 0 218 39 218 97c0 32 -23 56 -70 69c-67 19 -162 13 -278 24
c-151 14 -222 62 -222 160c0 116 118 191 328 191c139 0 252 -31 337 -90zM662 463c-82 43 -167 63 -261 63c-136 0 -205 -25 -205 -73c0 -67 109 -57 287 -75c193 -19 286 -63 286 -185c0 -131 -120 -207 -345 -207c-158 0 -283 35 -379 108l65 85c83 -58 189 -89 312 -89
c142 0 218 39 218 97c0 32 -23 56 -70 69c-67 19 -162 13 -278 24c-151 14 -222 62 -222 160c0 116 118 191 329 191c138 0 251 -30 337 -90z" />
    <glyph glyph-name="Aacute" unicode="&#xc1;" horiz-adv-x="947" 
d="M932 0h-131l-84 162h-487l-84 -162h-131l383 724h151zM658 271l-184 350l-185 -350h369zM598 946l-124 -166h-61l69 166h116z" />
    <glyph glyph-name="Acircumflex" unicode="&#xc2;" horiz-adv-x="947" 
d="M932 0h-131l-84 162h-487l-84 -162h-131l383 724h151zM658 271l-184 350l-185 -350h369zM667 779h-102l-91 99l-91 -99h-102l153 166h80z" />
    <glyph glyph-name="Adieresis" unicode="&#xc4;" horiz-adv-x="947" 
d="M932 0h-131l-84 162h-487l-84 -162h-131l383 724h151zM658 271l-184 350l-185 -350h369zM639 857c0 -33 -29 -62 -64 -62s-63 28 -63 62c0 35 29 64 63 64s64 -30 64 -64zM438 857c0 -34 -29 -62 -64 -62s-63 28 -63 62c0 35 29 64 63 64c35 0 64 -29 64 -64z" />
    <glyph glyph-name="Agrave" unicode="&#xc0;" horiz-adv-x="947" 
d="M932 0h-131l-84 162h-487l-84 -162h-131l383 724h151zM658 271l-184 350l-185 -350h369zM537 780h-61l-124 166h116z" />
    <glyph glyph-name="Aring" unicode="&#xc5;" horiz-adv-x="947" 
d="M587 871c0 -51 -47 -92 -113 -92c-65 0 -112 41 -112 92s47 93 112 93s113 -42 113 -93zM932 0h-131l-84 162h-487l-84 -162h-131l383 724h151zM527 871c0 22 -23 42 -53 42c-31 0 -52 -20 -52 -42c0 -23 20 -41 52 -41c31 0 53 19 53 41zM658 271l-184 350l-185 -350
h369z" />
    <glyph glyph-name="Atilde" unicode="&#xc3;" horiz-adv-x="947" 
d="M932 0h-131l-84 162h-487l-84 -162h-131l383 724h151zM658 271l-184 350l-185 -350h369zM644 880c-30 -56 -64 -84 -103 -84c-54 0 -100 37 -129 37c-16 0 -34 -16 -53 -48l-59 46c43 51 73 78 108 78c47 0 92 -38 128 -38c22 0 35 15 54 46z" />
    <glyph glyph-name="Ccedilla" unicode="&#xc7;" horiz-adv-x="1046" 
d="M966 559l-109 -39c-75 80 -175 117 -308 117c-202 0 -339 -116 -339 -273c0 -163 132 -274 346 -274c129 0 225 36 302 119l103 -57c-100 -118 -227 -172 -399 -172h-5l-16 -26c52 -5 80 -33 80 -76c0 -48 -41 -84 -109 -84c-32 0 -63 6 -96 19l19 36
c21 -8 39 -12 52 -12c30 0 51 19 51 38c0 14 -10 24 -25 24c-10 0 -19 -6 -27 -17l-31 14c10 19 26 47 46 86c-266 29 -416 175 -416 382c0 116 49 212 147 286c80 61 193 97 317 97c179 0 323 -65 417 -188z" />
    <glyph glyph-name="Eacute" unicode="&#xc9;" horiz-adv-x="939" 
d="M879 0h-758v724h730v-109h-610v-185h424v-109h-424v-212h638v-109zM603 946l-124 -166h-61l69 166h116z" />
    <glyph glyph-name="Ecircumflex" unicode="&#xca;" horiz-adv-x="939" 
d="M879 0h-758v724h730v-109h-610v-185h424v-109h-424v-212h638v-109zM672 779h-102l-91 99l-91 -99h-102l153 166h80z" />
    <glyph glyph-name="Edieresis" unicode="&#xcb;" horiz-adv-x="939" 
d="M879 0h-758v724h730v-109h-610v-185h424v-109h-424v-212h638v-109zM644 857c0 -33 -29 -62 -64 -62s-63 28 -63 62c0 35 29 64 63 64s64 -30 64 -64zM443 857c0 -34 -29 -62 -64 -62s-63 28 -63 62c0 35 29 64 63 64c35 0 64 -29 64 -64z" />
    <glyph glyph-name="Egrave" unicode="&#xc8;" horiz-adv-x="939" 
d="M879 0h-758v724h730v-109h-610v-185h424v-109h-424v-212h638v-109zM542 780h-61l-124 166h116z" />
    <glyph glyph-name="Eth" unicode="&#xd0;" horiz-adv-x="1065" 
d="M579 724c253 0 410 -146 410 -370c0 -102 -40 -191 -117 -258c-70 -62 -165 -96 -270 -96h-481v324h-72v109h72v291h458zM612 109c144 0 247 103 247 248c0 154 -108 258 -270 258h-348v-182h335v-109h-335v-215h371z" />
    <glyph glyph-name="Iacute" unicode="&#xcd;" horiz-adv-x="362" 
d="M241 0h-120v724h120v-724zM305 946l-124 -166h-61l69 166h116z" />
    <glyph glyph-name="Icircumflex" unicode="&#xce;" horiz-adv-x="362" 
d="M241 0h-120v724h120v-724zM374 779h-102l-91 99l-91 -99h-102l153 166h80z" />
    <glyph glyph-name="Idieresis" unicode="&#xcf;" horiz-adv-x="362" 
d="M241 0h-120v724h120v-724zM346 857c0 -33 -29 -62 -64 -62s-63 28 -63 62c0 35 29 64 63 64s64 -30 64 -64zM145 857c0 -34 -29 -62 -64 -62s-63 28 -63 62c0 35 29 64 63 64c35 0 64 -29 64 -64z" />
    <glyph glyph-name="Igrave" unicode="&#xcc;" horiz-adv-x="362" 
d="M241 0h-120v724h120v-724zM244 780h-61l-124 166h116z" />
    <glyph glyph-name="Ntilde" unicode="&#xd1;" horiz-adv-x="1064" 
d="M943 0h-148l-554 594v-594h-120v724h149l553 -594v594h120v-724zM702 880c-30 -56 -64 -84 -103 -84c-54 0 -100 37 -129 37c-16 0 -34 -16 -53 -48l-59 46c43 51 73 78 108 78c47 0 92 -38 128 -38c22 0 35 15 54 46z" />
    <glyph glyph-name="Oacute" unicode="&#xd3;" horiz-adv-x="1096" 
d="M1013 363c0 -118 -49 -215 -146 -288c-80 -60 -192 -96 -318 -96s-241 37 -320 97c-97 73 -146 169 -146 287c0 116 50 212 148 286c81 61 194 98 318 98c123 0 237 -37 317 -98c97 -74 147 -171 147 -286zM888 363c0 84 -36 153 -108 206c-58 42 -140 68 -231 68
c-202 0 -341 -116 -341 -274c0 -163 133 -274 341 -274c207 0 339 112 339 274zM672 946l-124 -166h-61l69 166h116z" />
    <glyph glyph-name="Ocircumflex" unicode="&#xd4;" horiz-adv-x="1096" 
d="M1013 363c0 -118 -49 -215 -146 -288c-80 -60 -192 -96 -318 -96s-241 37 -320 97c-97 73 -146 169 -146 287c0 116 50 212 148 286c81 61 194 98 318 98c123 0 237 -37 317 -98c97 -74 147 -171 147 -286zM888 363c0 84 -36 153 -108 206c-58 42 -140 68 -231 68
c-202 0 -341 -116 -341 -274c0 -163 133 -274 341 -274c207 0 339 112 339 274zM741 779h-102l-91 99l-91 -99h-102l153 166h80z" />
    <glyph glyph-name="Odieresis" unicode="&#xd6;" horiz-adv-x="1096" 
d="M1013 363c0 -118 -49 -215 -146 -288c-80 -60 -192 -96 -318 -96s-241 37 -320 97c-97 73 -146 169 -146 287c0 116 50 212 148 286c81 61 194 98 318 98c123 0 237 -37 317 -98c97 -74 147 -171 147 -286zM888 363c0 84 -36 153 -108 206c-58 42 -140 68 -231 68
c-202 0 -341 -116 -341 -274c0 -163 133 -274 341 -274c207 0 339 112 339 274zM713 857c0 -33 -29 -62 -64 -62s-63 28 -63 62c0 35 29 64 63 64s64 -30 64 -64zM512 857c0 -34 -29 -62 -64 -62s-63 28 -63 62c0 35 29 64 63 64c35 0 64 -29 64 -64z" />
    <glyph glyph-name="Ograve" unicode="&#xd2;" horiz-adv-x="1096" 
d="M1013 363c0 -118 -49 -215 -146 -288c-80 -60 -192 -96 -318 -96s-241 37 -320 97c-97 73 -146 169 -146 287c0 116 50 212 148 286c81 61 194 98 318 98c123 0 237 -37 317 -98c97 -74 147 -171 147 -286zM888 363c0 84 -36 153 -108 206c-58 42 -140 68 -231 68
c-202 0 -341 -116 -341 -274c0 -163 133 -274 341 -274c207 0 339 112 339 274zM611 780h-61l-124 166h116z" />
    <glyph glyph-name="Otilde" unicode="&#xd5;" horiz-adv-x="1096" 
d="M1013 363c0 -118 -49 -215 -146 -288c-80 -60 -192 -96 -318 -96s-241 37 -320 97c-97 73 -146 169 -146 287c0 116 50 212 148 286c81 61 194 98 318 98c123 0 237 -37 317 -98c97 -74 147 -171 147 -286zM888 363c0 84 -36 153 -108 206c-58 42 -140 68 -231 68
c-202 0 -341 -116 -341 -274c0 -163 133 -274 341 -274c207 0 339 112 339 274zM718 880c-30 -56 -64 -84 -103 -84c-54 0 -100 37 -129 37c-16 0 -34 -16 -53 -48l-59 46c43 51 73 78 108 78c47 0 92 -38 128 -38c22 0 35 15 54 46z" />
    <glyph glyph-name="Scaron" unicode="&#x160;" horiz-adv-x="939" 
d="M755 554c-108 55 -214 82 -328 82c-150 0 -229 -38 -229 -98c0 -33 21 -55 63 -70c79 -28 198 -19 345 -38c180 -23 266 -85 266 -206c0 -152 -138 -241 -395 -241c-184 0 -326 39 -431 122l66 87c116 -71 234 -104 366 -104c172 0 264 50 264 128
c0 103 -123 103 -336 117c-223 15 -335 50 -335 189c0 135 130 220 365 220c156 0 287 -36 392 -107zM648 945l-153 -166h-80l-153 166h102l91 -99l91 99h102z" />
    <glyph glyph-name="Thorn" unicode="&#xde;" horiz-adv-x="953" 
d="M695 615c148 0 241 -89 241 -226c0 -143 -92 -222 -264 -222h-431v-167h-120v724h120v-109h454zM674 276c91 0 139 39 139 111c0 80 -48 119 -147 119h-425v-230h433z" />
    <glyph glyph-name="Uacute" unicode="&#xda;" horiz-adv-x="1052" 
d="M936 234c0 -148 -156 -256 -409 -256c-254 0 -411 109 -411 256v490h120v-461c0 -112 100 -175 291 -175c190 0 289 63 289 175v461h120v-490zM650 946l-124 -166h-61l69 166h116z" />
    <glyph glyph-name="Ucircumflex" unicode="&#xdb;" horiz-adv-x="1052" 
d="M936 234c0 -148 -156 -256 -409 -256c-254 0 -411 109 -411 256v490h120v-461c0 -112 100 -175 291 -175c190 0 289 63 289 175v461h120v-490zM719 779h-102l-91 99l-91 -99h-102l153 166h80z" />
    <glyph glyph-name="Udieresis" unicode="&#xdc;" horiz-adv-x="1052" 
d="M936 234c0 -148 -156 -256 -409 -256c-254 0 -411 109 -411 256v490h120v-461c0 -112 100 -175 291 -175c190 0 289 63 289 175v461h120v-490zM691 857c0 -33 -29 -62 -64 -62s-63 28 -63 62c0 35 29 64 63 64s64 -30 64 -64zM490 857c0 -34 -29 -62 -64 -62
s-63 28 -63 62c0 35 29 64 63 64c35 0 64 -29 64 -64z" />
    <glyph glyph-name="Ugrave" unicode="&#xd9;" horiz-adv-x="1052" 
d="M936 234c0 -148 -156 -256 -409 -256c-254 0 -411 109 -411 256v490h120v-461c0 -112 100 -175 291 -175c190 0 289 63 289 175v461h120v-490zM589 780h-61l-124 166h116z" />
    <glyph glyph-name="Yacute" unicode="&#xdd;" horiz-adv-x="922" 
d="M917 724l-396 -438v-286h-120v286l-396 438h149l308 -338l306 338h149zM585 946l-124 -166h-61l69 166h116z" />
    <glyph glyph-name="Ydieresis" unicode="&#x178;" horiz-adv-x="922" 
d="M917 724l-396 -438v-286h-120v286l-396 438h149l308 -338l306 338h149zM626 857c0 -33 -29 -62 -64 -62s-63 28 -63 62c0 35 29 64 63 64s64 -30 64 -64zM425 857c0 -34 -29 -62 -64 -62s-63 28 -63 62c0 35 29 64 63 64c35 0 64 -29 64 -64z" />
    <glyph glyph-name="Zcaron" unicode="&#x17d;" horiz-adv-x="887" 
d="M837 0h-787v109l598 506h-589v109h751v-109l-598 -506h625v-109zM638 945l-153 -166h-80l-153 166h102l91 -99l91 99h102z" />
    <glyph glyph-name="aacute" unicode="&#xe1;" horiz-adv-x="845" 
d="M832 0h-132l-71 132h-413l-71 -132h-132l335 615h149zM569 241l-146 272l-147 -272h293zM547 835l-124 -166h-61l69 166h116z" />
    <glyph glyph-name="acircumflex" unicode="&#xe2;" horiz-adv-x="845" 
d="M832 0h-132l-71 132h-413l-71 -132h-132l335 615h149zM569 241l-146 272l-147 -272h293zM616 668h-102l-91 99l-91 -99h-102l153 166h80z" />
    <glyph glyph-name="adieresis" unicode="&#xe4;" horiz-adv-x="845" 
d="M832 0h-132l-71 132h-413l-71 -132h-132l335 615h149zM569 241l-146 272l-147 -272h293zM588 746c0 -33 -29 -62 -64 -62s-63 28 -63 62c0 35 29 64 63 64s64 -30 64 -64zM387 746c0 -34 -29 -62 -64 -62s-63 28 -63 62c0 35 29 64 63 64c35 0 64 -29 64 -64z" />
    <glyph glyph-name="agrave" unicode="&#xe0;" horiz-adv-x="845" 
d="M832 0h-132l-71 132h-413l-71 -132h-132l335 615h149zM569 241l-146 272l-147 -272h293zM486 669h-61l-124 166h116z" />
    <glyph glyph-name="aring" unicode="&#xe5;" horiz-adv-x="845" 
d="M536 763c0 -51 -48 -92 -113 -92s-112 41 -112 92s48 93 112 93c65 0 113 -42 113 -93zM832 0h-132l-71 132h-413l-71 -132h-132l335 615h149zM476 763c0 22 -22 42 -53 42s-53 -20 -53 -42s21 -41 53 -41c30 0 53 19 53 41zM569 241l-146 272l-147 -272h293z" />
    <glyph glyph-name="atilde" unicode="&#xe3;" horiz-adv-x="845" 
d="M832 0h-132l-71 132h-413l-71 -132h-132l335 615h149zM569 241l-146 272l-147 -272h293zM593 769c-30 -56 -64 -84 -103 -84c-54 0 -100 37 -129 37c-16 0 -34 -16 -53 -48l-59 46c43 51 73 78 108 78c47 0 92 -38 128 -38c22 0 35 15 54 46z" />
    <glyph glyph-name="brokenbar" unicode="&#xa6;" 
d="M287 699v-370h-73v370h73zM287 199v-370h-73v370h73z" />
    <glyph glyph-name="ccedilla" unicode="&#xe7;" horiz-adv-x="904" 
d="M841 467l-110 -38c-70 70 -151 98 -259 98c-167 0 -279 -92 -279 -217c0 -129 110 -219 279 -219c110 0 189 27 261 101l103 -55c-91 -104 -200 -152 -347 -153l-19 -30c52 -5 80 -33 80 -76c0 -49 -41 -84 -109 -84c-32 0 -63 6 -96 19l19 36c21 -8 38 -12 52 -12
c30 0 51 18 51 38c0 14 -10 24 -25 24c-10 0 -19 -6 -27 -17l-31 14c17 30 33 60 48 89c-233 24 -364 150 -364 325c0 99 43 180 129 243c69 50 168 82 275 82c153 0 271 -53 369 -168z" />
    <glyph glyph-name="copyright" unicode="&#xa9;" horiz-adv-x="833" 
d="M775 354c0 -99 -35 -184 -103 -252c-70 -70 -160 -107 -256 -107s-182 36 -252 106s-106 156 -106 253s37 185 107 255c69 69 154 104 251 104c99 0 188 -37 256 -105c67 -67 103 -155 103 -254zM733 354c0 85 -33 164 -92 224c-60 60 -138 92 -225 92
c-86 0 -161 -31 -221 -91c-61 -61 -94 -140 -94 -225c0 -83 32 -161 93 -222s137 -93 222 -93c86 0 164 32 226 94c60 60 91 135 91 221zM588 274c-23 -95 -79 -140 -173 -140c-114 0 -188 82 -188 218c0 139 77 223 193 223c87 0 140 -42 163 -130h-63
c-18 54 -49 80 -98 80c-79 0 -125 -60 -125 -172c0 -108 48 -168 125 -168c52 0 85 29 103 89h63z" />
    <glyph glyph-name="degree" unicode="&#xb0;" horiz-adv-x="532" 
d="M448 559c0 -46 -19 -89 -55 -123c-33 -32 -77 -49 -126 -49s-94 18 -127 49c-36 34 -55 77 -55 123s19 89 55 123c33 32 78 49 127 49s93 -17 126 -49c36 -34 55 -77 55 -123zM376 559c0 58 -49 106 -109 106c-61 0 -110 -48 -110 -106c0 -57 48 -104 110 -104
c61 0 109 47 109 104z" />
    <glyph glyph-name="divide" unicode="&#xf7;" horiz-adv-x="833" 
d="M417 540c33 0 61 -28 61 -62c0 -33 -27 -61 -61 -61s-61 27 -61 61s28 62 61 62zM709 332v-68h-585v68h585zM417 179c33 0 61 -27 61 -61c0 -33 -27 -61 -61 -61c-35 0 -61 27 -61 61s28 61 61 61z" />
    <glyph glyph-name="eacute" unicode="&#xe9;" horiz-adv-x="817" 
d="M767 0h-662v615h639v-109h-519v-132h361v-109h-361v-156h542v-109zM539 835l-124 -166h-61l69 166h116z" />
    <glyph glyph-name="ecircumflex" unicode="&#xea;" horiz-adv-x="817" 
d="M767 0h-662v615h639v-109h-519v-132h361v-109h-361v-156h542v-109zM608 668h-102l-91 99l-91 -99h-102l153 166h80z" />
    <glyph glyph-name="edieresis" unicode="&#xeb;" horiz-adv-x="817" 
d="M767 0h-662v615h639v-109h-519v-132h361v-109h-361v-156h542v-109zM580 746c0 -33 -29 -62 -64 -62s-63 28 -63 62c0 35 29 64 63 64s64 -30 64 -64zM379 746c0 -34 -29 -62 -64 -62s-63 28 -63 62c0 35 29 64 63 64c35 0 64 -29 64 -64z" />
    <glyph glyph-name="egrave" unicode="&#xe8;" horiz-adv-x="817" 
d="M767 0h-662v615h639v-109h-519v-132h361v-109h-361v-156h542v-109zM478 669h-61l-124 166h116z" />
    <glyph glyph-name="eth" unicode="&#xf0;" horiz-adv-x="920" 
d="M502 615c218 0 358 -128 358 -303c0 -93 -34 -166 -104 -232c-39 -38 -139 -80 -234 -80h-418v258h-50v109h50v248h398zM530 109c118 0 201 82 201 195c0 121 -87 202 -220 202h-287v-139h287v-109h-287v-149h306z" />
    <glyph glyph-name="iacute" unicode="&#xed;" horiz-adv-x="330" 
d="M225 0h-120v615h120v-615zM289 835l-124 -166h-61l69 166h116z" />
    <glyph glyph-name="icircumflex" unicode="&#xee;" horiz-adv-x="330" 
d="M225 0h-120v615h120v-615zM358 668h-102l-91 99l-91 -99h-102l153 166h80z" />
    <glyph glyph-name="idieresis" unicode="&#xef;" horiz-adv-x="330" 
d="M225 0h-120v615h120v-615zM330 746c0 -33 -29 -62 -64 -62s-63 28 -63 62c0 35 29 64 63 64s64 -30 64 -64zM129 746c0 -34 -29 -62 -64 -62s-63 28 -63 62c0 35 29 64 63 64c35 0 64 -29 64 -64z" />
    <glyph glyph-name="igrave" unicode="&#xec;" horiz-adv-x="330" 
d="M225 0h-120v615h120v-615zM228 669h-61l-124 166h116z" />
    <glyph glyph-name="logicalnot" unicode="&#xac;" horiz-adv-x="795" 
d="M613 324c83 -34 126 -87 126 -147c0 -116 -119 -187 -341 -187c-223 0 -342 71 -342 187c0 61 43 113 126 147c-56 32 -84 72 -84 121c0 109 106 177 298 177c194 0 301 -68 301 -177c0 -49 -28 -89 -84 -121zM569 444c0 48 -57 70 -171 70c-115 0 -172 -22 -172 -70
c0 -49 59 -77 172 -77s171 28 171 77zM607 185c0 59 -69 82 -209 82c-141 0 -210 -23 -210 -82c0 -56 70 -84 210 -84c139 0 209 28 209 84z" />
    <glyph glyph-name="minus" unicode="&#x2212;" horiz-adv-x="833" 
d="M709 333v-69h-585v69h585z" />
    <glyph glyph-name="mu" unicode="&#xb5;" horiz-adv-x="562" 
d="M188 523l-63 -293c-5 -22 -7 -43 -7 -65c0 -65 36 -101 98 -101c90 0 133 62 162 197l56 262h87l-76 -357c-6 -29 -11 -51 -11 -65c0 -24 10 -33 35 -33c5 0 10 0 16 1l-15 -70c-19 -4 -36 -5 -53 -5c-42 0 -61 18 -73 63c-29 -43 -73 -64 -132 -64c-53 0 -91 17 -125 57
l-54 -259h-88l155 732h88z" />
    <glyph glyph-name="multiply" unicode="&#xd7;" horiz-adv-x="833" 
d="M420 346l229 229l48 -48l-229 -229l229 -229l-48 -47l-229 228l-229 -228l-48 47l229 229l-229 229l48 48z" />
    <glyph glyph-name="ntilde" unicode="&#xf1;" horiz-adv-x="927" 
d="M822 0h-179l-418 513v-513h-120v615h179l418 -513v513h120v-615zM634 769c-30 -56 -64 -84 -103 -84c-54 0 -100 37 -129 37c-16 0 -34 -16 -53 -48l-59 46c43 51 73 78 108 78c47 0 92 -38 128 -38c22 0 35 15 54 46z" />
    <glyph glyph-name="oacute" unicode="&#xf3;" horiz-adv-x="945" 
d="M877 309c0 -101 -43 -183 -129 -246c-69 -51 -166 -81 -275 -81s-207 31 -276 81c-86 63 -129 145 -129 246c0 99 43 181 130 244c70 51 169 83 275 83s204 -32 274 -83c86 -63 130 -145 130 -244zM752 309c0 125 -113 218 -279 218c-167 0 -281 -94 -281 -218
c0 -129 110 -219 281 -219c170 0 279 90 279 219zM597 835l-124 -166h-61l69 166h116z" />
    <glyph glyph-name="ocircumflex" unicode="&#xf4;" horiz-adv-x="945" 
d="M877 309c0 -101 -43 -183 -129 -246c-69 -51 -166 -81 -275 -81s-207 31 -276 81c-86 63 -129 145 -129 246c0 99 43 181 130 244c70 51 169 83 275 83s204 -32 274 -83c86 -63 130 -145 130 -244zM752 309c0 125 -113 218 -279 218c-167 0 -281 -94 -281 -218
c0 -129 110 -219 281 -219c170 0 279 90 279 219zM666 668h-102l-91 99l-91 -99h-102l153 166h80z" />
    <glyph glyph-name="odieresis" unicode="&#xf6;" horiz-adv-x="945" 
d="M877 309c0 -101 -43 -183 -129 -246c-69 -51 -166 -81 -275 -81s-207 31 -276 81c-86 63 -129 145 -129 246c0 99 43 181 130 244c70 51 169 83 275 83s204 -32 274 -83c86 -63 130 -145 130 -244zM752 309c0 125 -113 218 -279 218c-167 0 -281 -94 -281 -218
c0 -129 110 -219 281 -219c170 0 279 90 279 219zM638 746c0 -33 -29 -62 -64 -62s-63 28 -63 62c0 35 29 64 63 64s64 -30 64 -64zM437 746c0 -34 -29 -62 -64 -62s-63 28 -63 62c0 35 29 64 63 64c35 0 64 -29 64 -64z" />
    <glyph glyph-name="ograve" unicode="&#xf2;" horiz-adv-x="945" 
d="M877 309c0 -101 -43 -183 -129 -246c-69 -51 -166 -81 -275 -81s-207 31 -276 81c-86 63 -129 145 -129 246c0 99 43 181 130 244c70 51 169 83 275 83s204 -32 274 -83c86 -63 130 -145 130 -244zM752 309c0 125 -113 218 -279 218c-167 0 -281 -94 -281 -218
c0 -129 110 -219 281 -219c170 0 279 90 279 219zM536 669h-61l-124 166h116z" />
    <glyph glyph-name="onehalf" unicode="&#xbd;" horiz-adv-x="1063" 
d="M166 318h-75v338l-73 -28v58c27 8 52 21 73 37h75v-405zM780 724l-647 -734h-137l648 734h136zM1018 0h-463c5 102 65 166 189 201c59 16 112 24 148 41c22 12 32 25 32 44c0 38 -44 64 -123 64c-66 0 -123 -18 -178 -57l-48 45c71 49 144 72 228 72
c121 0 203 -54 203 -128c0 -57 -39 -90 -120 -111c-44 -11 -89 -18 -132 -30c-54 -17 -89 -40 -110 -80h374v-61z" />
    <glyph glyph-name="onequarter" unicode="&#xbc;" horiz-adv-x="1046" 
d="M166 318h-75v338l-73 -28v58c27 8 52 21 73 37h75v-405zM780 724l-647 -734h-137l648 734h136zM1031 80h-104v-80h-76v80h-300v61l302 264h74v-264h104v-61zM851 141v193l-220 -193h220z" />
    <glyph glyph-name="onesuperior" unicode="&#xb9;" horiz-adv-x="253" 
d="M174 289h-79v362l-77 -30v63c30 8 55 21 78 39h78v-434z" />
    <glyph glyph-name="otilde" unicode="&#xf5;" horiz-adv-x="945" 
d="M877 309c0 -101 -43 -183 -129 -246c-69 -51 -166 -81 -275 -81s-207 31 -276 81c-86 63 -129 145 -129 246c0 99 43 181 130 244c70 51 169 83 275 83s204 -32 274 -83c86 -63 130 -145 130 -244zM752 309c0 125 -113 218 -279 218c-167 0 -281 -94 -281 -218
c0 -129 110 -219 281 -219c170 0 279 90 279 219zM643 769c-30 -56 -64 -84 -103 -84c-54 0 -100 37 -129 37c-16 0 -34 -16 -53 -48l-59 46c43 51 73 78 108 78c47 0 92 -38 128 -38c22 0 35 15 54 46z" />
    <glyph glyph-name="plusminus" unicode="&#xb1;" horiz-adv-x="833" 
d="M451 582v-166h258v-68h-258v-166h-69v166h-258v68h258v166h69zM709 83v-69h-585v69h585z" />
    <glyph glyph-name="registered" unicode="&#xae;" horiz-adv-x="379" 
d="M344 571c0 -84 -69 -154 -158 -154c-83 0 -151 68 -151 157c0 81 70 151 154 151c88 0 155 -67 155 -154zM321 571c0 73 -56 130 -132 130c-73 0 -130 -56 -130 -130s58 -132 130 -132c74 0 132 58 132 132zM260 487h-40l-32 69h-24v-69h-35v167h59c47 0 71 -18 71 -49
c0 -21 -11 -35 -36 -44zM188 579c22 0 33 7 33 24s-11 24 -35 24h-22v-48h24z" />
    <glyph glyph-name="scaron" unicode="&#x161;" horiz-adv-x="814" 
d="M662 463c-82 43 -167 63 -261 63c-136 0 -205 -25 -205 -73c0 -67 109 -57 287 -75c193 -19 286 -63 286 -185c0 -131 -120 -207 -345 -207c-158 0 -283 35 -379 108l65 85c83 -58 189 -89 312 -89c142 0 218 39 218 97c0 32 -23 56 -70 69c-67 19 -162 13 -278 24
c-151 14 -222 62 -222 160c0 116 118 191 329 191c138 0 251 -30 337 -90zM601 834l-153 -166h-80l-153 166h102l91 -99l91 99h102z" />
    <glyph glyph-name="thorn" unicode="&#xfe;" horiz-adv-x="836" 
d="M602 552c131 0 214 -77 214 -195c0 -124 -83 -194 -234 -194h-357v-163h-120v615h120v-63h377zM584 272c72 0 109 29 109 83c0 61 -37 88 -116 88h-352v-171h359z" />
    <glyph glyph-name="threequarters" unicode="&#xbe;" horiz-adv-x="1347" 
d="M393 531c61 -18 93 -54 93 -99c0 -74 -85 -120 -242 -120c-99 0 -172 23 -235 82l51 45c57 -46 118 -66 193 -66c100 0 153 25 153 68c0 41 -60 60 -182 60h-36v54h70c83 0 127 23 127 60c0 36 -41 53 -124 53c-64 0 -121 -15 -175 -45l-43 41c70 43 140 64 217 64
c129 0 203 -43 203 -110c0 -38 -24 -68 -70 -87zM1081 724l-647 -734h-137l648 734h136zM1332 80h-104v-80h-76v80h-300v61l302 264h74v-264h104v-61zM1152 141v193l-220 -193h220z" />
    <glyph glyph-name="threesuperior" unicode="&#xb3;" horiz-adv-x="568" 
d="M412 518c63 -20 97 -59 97 -107c0 -79 -89 -129 -253 -129c-104 0 -180 25 -246 89l53 48c59 -50 123 -71 202 -71c105 0 160 27 160 72s-63 65 -190 65h-38v58h73c87 0 133 24 133 65c0 38 -43 56 -130 56c-67 0 -126 -16 -183 -49l-45 45c73 46 146 69 228 69
c135 0 212 -47 212 -118c0 -41 -25 -74 -73 -93z" />
    <glyph glyph-name="trademark" unicode="&#x2122;" horiz-adv-x="409" 
d="M376 548h-39v125l-46 -125h-18l-47 125v-125h-40v166h58l39 -100l36 100h57v-166zM153 681h-51v-133h-41v133h-51v33h143v-33z" />
    <glyph glyph-name="twosuperior" unicode="&#xb2;" horiz-adv-x="553" 
d="M506 289h-486c6 110 69 178 199 215c62 18 117 26 155 45c23 12 34 26 34 47c0 40 -46 68 -129 68c-70 0 -129 -19 -187 -61l-50 48c74 53 151 78 239 78c126 0 213 -59 213 -138c0 -61 -41 -97 -126 -118c-47 -12 -93 -20 -138 -33c-57 -18 -94 -43 -116 -86h392v-65z
" />
    <glyph glyph-name="uacute" unicode="&#xfa;" horiz-adv-x="911" 
d="M813 202c0 -127 -136 -220 -357 -220c-222 0 -358 93 -358 220v413h120v-389c0 -88 81 -136 238 -136c156 0 237 49 237 136v389h120v-413zM580 835l-124 -166h-61l69 166h116z" />
    <glyph glyph-name="ucircumflex" unicode="&#xfb;" horiz-adv-x="911" 
d="M813 202c0 -127 -136 -220 -357 -220c-222 0 -358 93 -358 220v413h120v-389c0 -88 81 -136 238 -136c156 0 237 49 237 136v389h120v-413zM649 668h-102l-91 99l-91 -99h-102l153 166h80z" />
    <glyph glyph-name="udieresis" unicode="&#xfc;" horiz-adv-x="911" 
d="M813 202c0 -127 -136 -220 -357 -220c-222 0 -358 93 -358 220v413h120v-389c0 -88 81 -136 238 -136c156 0 237 49 237 136v389h120v-413zM621 746c0 -33 -29 -62 -64 -62s-63 28 -63 62c0 35 29 64 63 64s64 -30 64 -64zM420 746c0 -34 -29 -62 -64 -62s-63 28 -63 62
c0 35 29 64 63 64c35 0 64 -29 64 -64z" />
    <glyph glyph-name="ugrave" unicode="&#xf9;" horiz-adv-x="911" 
d="M813 202c0 -127 -136 -220 -357 -220c-222 0 -358 93 -358 220v413h120v-389c0 -88 81 -136 238 -136c156 0 237 49 237 136v389h120v-413zM519 669h-61l-124 166h116z" />
    <glyph glyph-name="yacute" unicode="&#xfd;" horiz-adv-x="828" 
d="M823 615l-350 -373v-242h-120v242l-348 373h146l263 -280l263 280h146zM538 835l-124 -166h-61l69 166h116z" />
    <glyph glyph-name="ydieresis" unicode="&#xff;" horiz-adv-x="828" 
d="M823 615l-350 -373v-242h-120v242l-348 373h146l263 -280l263 280h146zM579 746c0 -33 -29 -62 -64 -62s-63 28 -63 62c0 35 29 64 63 64s64 -30 64 -64zM378 746c0 -34 -29 -62 -64 -62s-63 28 -63 62c0 35 29 64 63 64c35 0 64 -29 64 -64z" />
    <glyph glyph-name="zcaron" unicode="&#x17e;" horiz-adv-x="767" 
d="M727 0h-687v109l492 397h-485v109h657v-109l-493 -397h516v-109zM578 834l-153 -166h-80l-153 166h102l91 -99l91 99h102z" />
    </font>
</defs>
</svg>
